<svg width="68" height="68" viewBox="0 0 68 68" fill="none" xmlns="http://www.w3.org/2000/svg">
<path d="M30.5 24L39.5933 36H21.4067L30.5 24Z" fill="#FFD645"/>
<path d="M42 17L54.9904 36.5H29.0096L42 17Z" fill="#FFD645"/>
<path d="M66.0078 47.9453H1.99219C0.891969 47.9453 0 48.8373 0 49.9375V66.0078C0 67.108 0.891969 68 1.99219 68H66.0078C67.108 68 68 67.108 68 66.0078V49.9375C68 48.8373 67.108 47.9453 66.0078 47.9453ZM64.0156 64.0156H59.8984V57.9062C59.8984 56.806 59.0065 55.9141 57.9062 55.9141C56.806 55.9141 55.9141 56.806 55.9141 57.9062V64.0156H51.9297V61.8906C51.9297 60.7904 51.0377 59.8984 49.9375 59.8984C48.8373 59.8984 47.9453 60.7904 47.9453 61.8906V64.0156H43.9609V57.9062C43.9609 56.806 43.069 55.9141 41.9688 55.9141C40.8685 55.9141 39.9766 56.806 39.9766 57.9062V64.0156H35.9922V61.8906C35.9922 60.7904 35.1002 59.8984 34 59.8984C32.8998 59.8984 32.0078 60.7904 32.0078 61.8906V64.0156H28.0234V57.9062C28.0234 56.806 27.1315 55.9141 26.0312 55.9141C24.931 55.9141 24.0391 56.806 24.0391 57.9062V64.0156H20.0547V61.8906C20.0547 60.7904 19.1627 59.8984 18.0625 59.8984C16.9623 59.8984 16.0703 60.7904 16.0703 61.8906V64.0156H12.0859V57.9062C12.0859 56.806 11.194 55.9141 10.0938 55.9141C8.99353 55.9141 8.10156 56.806 8.10156 57.9062V64.0156H3.98438V51.9297H64.0156V64.0156Z" fill="black"/>
<path d="M66.0078 12.0859C67.108 12.0859 68 11.194 68 10.0938V1.99219C68 0.891969 67.108 0 66.0078 0H57.9062C56.806 0 55.9141 0.891969 55.9141 1.99219V3.98438H12.0859V1.99219C12.0859 0.891969 11.194 0 10.0938 0H1.99219C0.891969 0 0 0.891969 0 1.99219V10.0938C0 11.194 0.891969 12.0859 1.99219 12.0859H3.98438V32.0078H1.99219C0.891969 32.0078 0 32.8998 0 34V41.9688C0 43.069 0.891969 43.9609 1.99219 43.9609H10.0938C11.194 43.9609 12.0859 43.069 12.0859 41.9688V39.9766C13.6386 39.9766 54.4444 39.9766 55.9141 39.9766V41.9688C55.9141 43.069 56.806 43.9609 57.9062 43.9609H66.0078C67.108 43.9609 68 43.069 68 41.9688V34C68 32.8998 67.108 32.0078 66.0078 32.0078H64.0156V12.0859H66.0078ZM3.98438 3.98438H8.10156V8.10156H3.98438V3.98438ZM8.10156 39.9766H3.98438V35.9922H8.10156V39.9766ZM22.0469 35.9922L30.0156 25.3672L37.9844 35.9922H22.0469ZM42.9648 35.9922L35.9707 26.6668L41.9688 17.6696L54.1838 35.9922H42.9648ZM56.6269 32.4739L43.6264 12.973C42.8403 11.794 41.1003 11.7892 40.3111 12.973L33.4355 23.2864L31.6094 20.8516C30.8124 19.7889 29.2173 19.7911 28.4219 20.8516L17.0664 35.9922H12.0859V34C12.0859 32.8998 11.194 32.0078 10.0938 32.0078H7.96875V12.0859H10.0938C11.194 12.0859 12.0859 11.194 12.0859 10.0938V7.96875H55.9141V10.0938C55.9141 11.194 56.806 12.0859 57.9062 12.0859H60.0312V32.0078H57.9062C57.419 32.0078 56.9731 32.1833 56.6269 32.4739ZM64.0156 39.9766H59.8984V35.9922H64.0156V39.9766ZM59.8984 8.10156V3.98438H64.0156V8.10156H59.8984Z" fill="black"/>
<path d="M18.0625 12.0859C14.767 12.0859 12.0859 14.767 12.0859 18.0625C12.0859 21.358 14.767 24.0391 18.0625 24.0391C21.358 24.0391 24.0391 21.358 24.0391 18.0625C24.0391 14.767 21.358 12.0859 18.0625 12.0859ZM18.0625 20.0547C16.964 20.0547 16.0703 19.161 16.0703 18.0625C16.0703 16.964 16.964 16.0703 18.0625 16.0703C19.161 16.0703 20.0547 16.964 20.0547 18.0625C20.0547 19.161 19.161 20.0547 18.0625 20.0547Z" fill="black"/>
</svg>
