<svg width="68" height="68" viewBox="0 0 68 68" fill="none" xmlns="http://www.w3.org/2000/svg">
<g clip-path="url(#clip0_5_83)">
<path d="M24.5 22.5L18 26.5V35.5L19.5 37L24.5 34" stroke="black"/>
<path d="M24 22.5L24.5 34L22.5 35L18 37.5L17.5 35L18 26.5L24 22.5Z" fill="#FFD645" stroke="black"/>
<path d="M26 31.5L27.5 12.5L33.5 2L37 4L44 21.5L49 27.5V38L44 35H38.5L42 45H26L29 35L26 31.5Z" fill="#FFD645" stroke="black"/>
<path d="M62.0234 7.96917H40.9753C40.9096 7.96917 40.8446 7.97276 40.7805 7.979C39.3922 5.24798 37.5922 2.76744 35.4087 0.584C34.6309 -0.194016 33.3694 -0.194016 32.5914 0.584C30.408 2.76744 28.6079 5.24811 27.2197 7.97913C27.1554 7.97276 27.0904 7.96917 27.0247 7.96917H5.97656C2.68109 7.96917 0 10.6504 0 13.9457V49.8051C0 53.1006 2.68109 55.7817 5.97656 55.7817H23.2863L20.6012 64.0161H18.0625C16.9623 64.0161 16.0703 64.908 16.0703 66.0082C16.0703 67.1085 16.9623 68.0004 18.0625 68.0004C18.3644 68.0004 49.6526 68.0004 49.9375 68.0004C51.0377 68.0004 51.9297 67.1085 51.9297 66.0082C51.9297 64.908 51.0377 64.0161 49.9375 64.0161H47.3989L44.7139 55.7817H62.0234C65.3189 55.7817 68 53.1006 68 49.8051V13.9457C68 10.6504 65.3189 7.96917 62.0234 7.96917ZM34 4.92843C35.6119 6.82433 36.9171 8.92316 37.8926 11.1628C36.6693 11.6821 35.3482 11.9535 34 11.9535C32.6518 11.9535 31.3307 11.6821 30.1074 11.1626C31.0829 8.92316 32.3881 6.82446 34 4.92843ZM28.0234 21.9146C28.0234 19.721 28.1139 17.6679 28.8119 14.9386C30.4516 15.5957 32.2094 15.9379 34 15.9379C35.7906 15.9379 37.5484 15.5957 39.1881 14.9385C39.878 17.6363 39.9766 19.6965 39.9766 21.9146V31.8756C38.7668 31.8756 29.9717 31.8756 28.0234 31.8756V21.9146ZM39.2048 43.8286H28.7953L31.4516 35.8598H36.5485L39.2048 43.8286ZM3.98438 13.9457C3.98438 12.8472 4.87807 11.9535 5.97656 11.9535H25.5525C24.6658 14.5931 24.167 17.3282 24.062 20.1186C19.5096 21.0354 16.0703 25.0648 16.0703 29.8834V37.8521C16.0703 38.5426 16.4278 39.1838 17.0151 39.5468C17.6036 39.9106 18.3372 39.9422 18.9534 39.6341L26.5015 35.8598H27.2515L24.5953 43.8286H3.98438V13.9457ZM24.0391 24.2481V32.6364L20.0547 34.6288V29.8834C20.0547 27.286 21.72 25.0702 24.0391 24.2481ZM24.792 64.0161L27.4772 55.7817H40.5231L43.2082 64.0161H24.792ZM64.0156 49.8051C64.0156 50.9036 63.1219 51.7973 62.0234 51.7973C61.404 51.7973 6.29173 51.7973 5.97656 51.7973C4.87807 51.7973 3.98438 50.9036 3.98438 49.8051V47.8129C6.16436 47.8129 61.7099 47.8129 64.0156 47.8129V49.8051ZM64.0156 43.8286H43.4047L40.7485 35.8598H41.4985L49.0466 39.6339C49.6631 39.9422 50.3965 39.9103 50.9849 39.5467C51.5722 39.1837 51.9297 38.5425 51.9297 37.852V29.8832C51.9297 25.0648 48.4904 21.0353 43.938 20.1186C43.8332 17.3281 43.3342 14.5931 42.4475 11.9535H62.0234C63.1219 11.9535 64.0156 12.8472 64.0156 13.9457V43.8286ZM43.9609 32.6364V24.2481C46.28 25.0704 47.9453 27.2861 47.9453 29.8834V34.6286L43.9609 32.6364Z" fill="black"/>
<path d="M34 23.9064C35.1003 23.9064 35.9922 23.0144 35.9922 21.9142C35.9922 20.8139 35.1003 19.922 34 19.922C32.8997 19.922 32.0078 20.8139 32.0078 21.9142C32.0078 23.0144 32.8997 23.9064 34 23.9064Z" fill="black"/>
</g>
<defs>
<clipPath id="clip0_5_83">
<rect width="68" height="68" fill="white"/>
</clipPath>
</defs>
</svg>
