<svg width="68" height="68" viewBox="0 0 68 68" fill="none" xmlns="http://www.w3.org/2000/svg">
<rect x="46" y="27" width="12" height="30" fill="#FFD645"/>
<rect x="11" y="43" width="27" height="14" fill="#FFD645"/>
<rect x="11" y="27" width="27" height="6" fill="#FFD645"/>
<path d="M62.0234 0H5.97656C2.68109 0 0 2.68109 0 5.97656V62.0234C0 65.3189 2.68109 68 5.97656 68H62.0234C65.3189 68 68 65.3189 68 62.0234V5.97656C68 2.68109 65.3189 0 62.0234 0ZM3.98438 5.97656C3.98438 4.87807 4.87807 3.98438 5.97656 3.98438H15.9375V15.9375H3.98438V5.97656ZM64.0156 62.0234C64.0156 63.1219 63.1219 64.0156 62.0234 64.0156H5.97656C4.87807 64.0156 3.98438 63.1219 3.98438 62.0234V19.9219H64.0156V62.0234ZM64.0156 15.9375H19.9219V3.98438H62.0234C63.1219 3.98438 64.0156 4.87807 64.0156 5.97656V15.9375Z" fill="black"/>
<path d="M58.0391 7.96875H54.0547C52.9545 7.96875 52.0625 8.86072 52.0625 9.96094C52.0625 11.0612 52.9545 11.9531 54.0547 11.9531H58.0391C59.1393 11.9531 60.0312 11.0612 60.0312 9.96094C60.0312 8.86072 59.1393 7.96875 58.0391 7.96875Z" fill="black"/>
<path d="M45.9531 7.96875H41.9688C40.8685 7.96875 39.9766 8.86072 39.9766 9.96094C39.9766 11.0612 40.8685 11.9531 41.9688 11.9531H45.9531C47.0533 11.9531 47.9453 11.0612 47.9453 9.96094C47.9453 8.86072 47.0533 7.96875 45.9531 7.96875Z" fill="black"/>
<path d="M34 7.96875H30.0156C28.9154 7.96875 28.0234 8.86072 28.0234 9.96094C28.0234 11.0612 28.9154 11.9531 30.0156 11.9531H34C35.1002 11.9531 35.9922 11.0612 35.9922 9.96094C35.9922 8.86072 35.1002 7.96875 34 7.96875Z" fill="black"/>
<path d="M37.9844 24.0391H9.96094C8.86072 24.0391 7.96875 24.931 7.96875 26.0312V34C7.96875 35.1002 8.86072 35.9922 9.96094 35.9922H37.9844C39.0846 35.9922 39.9766 35.1002 39.9766 34V26.0312C39.9766 24.931 39.0846 24.0391 37.9844 24.0391ZM35.9922 32.0078H11.9531V28.0234H35.9922V32.0078Z" fill="black"/>
<path d="M58.0391 24.0391H45.9531C44.8529 24.0391 43.9609 24.931 43.9609 26.0312V58.0391C43.9609 59.1393 44.8529 60.0312 45.9531 60.0312H58.0391C59.1393 60.0312 60.0312 59.1393 60.0312 58.0391V26.0312C60.0312 24.931 59.1393 24.0391 58.0391 24.0391ZM56.0469 56.0469H47.9453V28.0234H56.0469V56.0469Z" fill="black"/>
<path d="M37.9844 39.9766H9.96094C8.86072 39.9766 7.96875 40.8685 7.96875 41.9688V58.0391C7.96875 59.1393 8.86072 60.0312 9.96094 60.0312H37.9844C39.0846 60.0312 39.9766 59.1393 39.9766 58.0391V41.9688C39.9766 40.8685 39.0846 39.9766 37.9844 39.9766ZM35.9922 56.0469H11.9531V43.9609H35.9922V56.0469Z" fill="black"/>
</svg>
