<svg width="40" height="40" viewBox="0 0 40 40" fill="none" xmlns="http://www.w3.org/2000/svg">
<path d="M30.3717 7.11869L30.6775 6.73445L30.2988 6.42181C27.3834 4.01466 23.6808 2.57677 19.6299 2.57677C18.2107 2.57677 16.8348 2.77559 15.532 3.1013L14.8049 3.28309L15.252 3.88464C16.6426 5.75551 18.6403 8.58108 21.0327 13.0064L21.2393 13.3886L21.6466 13.2373C26.1739 11.5563 28.8868 8.98483 30.3717 7.11869ZM13.0714 4.36091L12.8264 4.03813L12.4599 4.21102C7.96373 6.33185 4.55736 10.3827 3.21271 15.3296L3.04663 15.9406L3.67947 15.9605C6.15537 16.0385 12.0736 15.9218 18.6312 14.165L19.2497 13.9993L18.939 13.4394C16.3956 8.85573 14.2566 5.92219 13.0714 4.36091ZM32.5252 8.6199L32.1375 8.15926L31.7559 8.62499C30.0999 10.6462 27.2247 13.2715 22.6723 15.0529L22.166 15.251L22.4057 15.7389C23.3872 17.7371 24.3394 19.8664 25.207 22.1658L25.3499 22.5447L25.7503 22.4836C29.0435 21.9807 32.0877 21.9807 34.3871 22.1608C34.9462 22.2072 35.307 22.2593 35.7269 22.3199C35.8153 22.3327 35.9064 22.3459 36.0025 22.3594L36.5145 22.4317L36.5695 21.9175C36.6369 21.2869 36.6757 20.6536 36.6757 19.999C36.6757 15.6455 35.0984 11.677 32.5252 8.6199ZM20.3782 16.2472L20.1931 15.876L19.7941 15.9894C12.0809 18.1807 5.28616 18.1138 3.17011 18.0284L2.68828 18.0089L2.6514 18.4897L2.64882 18.5233C2.61226 18.9999 2.57473 19.4889 2.57473 20.0086C2.57473 25.2424 4.8391 29.9144 8.41004 33.1113L8.78284 33.4451L9.11632 33.072C10.0114 32.0707 11.212 30.7954 12.6717 29.4642L12.6736 29.4624C15.4199 26.9307 18.9533 24.2519 22.8023 23.0831L23.3192 22.9261L23.1229 22.4229C22.2613 20.2152 21.3337 18.163 20.3782 16.2472ZM29.8678 24.1434L29.8624 24.1436C28.8512 24.1924 27.7749 24.2899 26.6804 24.4359L26.0856 24.5152L26.271 25.0859C27.1947 27.9298 27.9588 30.9423 28.4524 34.0761L28.5767 34.865L29.2321 34.4087C32.4181 32.1901 34.8282 28.8931 35.9509 25.0227L36.1161 24.4531L35.5268 24.3866C34.0667 24.2217 32.2154 24.0555 29.8678 24.1434ZM24.2117 25.3287L24.0581 24.8753L23.5985 25.009C20.2171 25.9929 16.6803 28.5441 13.9999 31.0044C12.7046 32.183 11.6586 33.3018 10.8191 34.2183L10.4064 34.6688L10.9297 34.9842C13.4752 36.5186 16.4312 37.4213 19.6205 37.4213C22.0142 37.4213 24.2719 36.9156 26.3338 36.0246L26.6818 35.8741L26.6309 35.4984C26.1466 31.9246 25.2924 28.5185 24.2117 25.3287ZM0.575806 19.999C0.575806 9.24581 9.14305 0.5 19.6299 0.5C30.1168 0.5 38.6841 9.24581 38.6841 19.999C38.6841 30.7522 30.1168 39.498 19.6299 39.498C9.14305 39.498 0.575806 30.7522 0.575806 19.999Z" fill="#070707" stroke="#070707"/>
</svg>
