<svg width="40" height="40" viewBox="0 0 40 40" fill="none" xmlns="http://www.w3.org/2000/svg">
<path d="M11.8743 0.50961H12.3743V0.5H28.2791C34.2437 0.5 39.1261 5.48469 39.1261 11.612V28.386C39.1261 34.5136 34.2434 39.498 28.2885 39.498H11.8743C5.90839 39.498 1.01786 34.5216 1.01786 28.4052V11.6216C1.01786 5.49485 5.90919 0.50961 11.8743 0.50961ZM3.02619 11.6303V11.6312V28.4149C3.02619 33.401 6.95375 37.4316 11.8743 37.4316H28.2885C33.1917 37.4316 37.1178 33.3995 37.1178 28.3956V11.6216C37.1178 6.6174 33.1913 2.58565 28.2791 2.58565H11.8743C6.96153 2.58565 3.03611 6.61773 3.02619 11.6303ZM31.1105 7.6997C31.1105 7.10977 31.5646 6.66168 32.1147 6.66168C32.6648 6.66168 33.1189 7.10977 33.1189 7.6997C33.1189 8.28963 32.6648 8.73772 32.1147 8.73772C31.5646 8.73772 31.1105 8.28963 31.1105 7.6997ZM10.0522 20.0038C10.0522 14.3481 14.5769 9.73772 20.0814 9.73772C25.5858 9.73772 30.1105 14.3481 30.1105 20.0038C30.1105 25.6596 25.5858 30.2699 20.0814 30.2699C14.5769 30.2699 10.0522 25.6596 10.0522 20.0038ZM28.1022 20.0038C28.1022 15.4702 24.542 11.8137 20.0814 11.8137C15.6208 11.8137 12.0606 15.4702 12.0606 20.0038C12.0606 24.5374 15.6208 28.1939 20.0814 28.1939C24.542 28.1939 28.1022 24.5374 28.1022 20.0038Z" fill="#070707" stroke="#070707"/>
</svg>
